<svg width="658" height="1080" viewBox="0 0 658 1080" fill="none" xmlns="http://www.w3.org/2000/svg">
<path d="M0 211H658V869H0V211Z" fill="url(#paint0_angular_15911_28)"/>
<path d="M316.2 816.3C286.8 816.3 261.3 811.8 239.7 802.8C218.1 793.8 201.6 777.9 190.2 755.1C179.4 732.3 174 700.2 174 658.8V628.2C188.4 628.2 203.1 628.2 218.1 628.2C233.1 628.2 247.8 628.2 262.2 628.2V666C262.2 691.2 264.6 710.7 269.4 724.5C274.2 738.3 280.8 747.9 289.2 753.3C297.6 758.1 307.2 760.5 318 760.5C335.4 760.5 349.2 754.8 359.4 743.4C370.2 731.4 375.6 709.2 375.6 676.8C375.6 652.8 372 634.8 364.8 622.8C357.6 610.8 346.2 601.2 330.6 594C315.6 586.2 296.1 577.5 272.1 567.9C252.3 558.9 235.2 548.4 220.8 536.4C206.4 524.4 195.6 509.1 188.4 490.5C181.2 471.9 177.6 448.8 177.6 421.2C177.6 387.6 181.8 360.3 190.2 339.3C199.2 317.7 214.2 302.1 235.2 292.5C256.2 282.3 284.4 277.2 319.8 277.2C365.4 277.2 400.2 287.7 424.2 308.7C448.2 329.1 460.2 359.1 460.2 398.7V460.8C446.4 460.8 432.3 460.8 417.9 460.8C404.1 460.8 390 460.8 375.6 460.8V423.9C375.6 396.3 371.1 376.5 362.1 364.5C353.7 351.9 339.9 345.6 320.7 345.6C300.9 345.6 286.5 351.6 277.5 363.6C269.1 375 264.9 393.3 264.9 418.5C264.9 440.1 269.1 456.9 277.5 468.9C285.9 480.3 296.7 489.3 309.9 495.9C323.7 502.5 337.8 508.5 352.2 513.9C379.2 524.1 401.1 534.6 417.9 545.4C434.7 556.2 447 570.6 454.8 588.6C462.6 606.6 466.5 632.1 466.5 665.1C466.5 702.9 460.2 732.9 447.6 755.1C435.6 776.7 418.2 792.3 395.4 801.9C373.2 811.5 346.8 816.3 316.2 816.3Z" fill="white"/>
<defs>
<radialGradient id="paint0_angular_15911_28" cx="0" cy="0" r="1" gradientUnits="userSpaceOnUse" gradientTransform="translate(329 540) rotate(90) scale(329 277.597)">
<stop offset="0.0895454" stop-color="#003D85"/>
<stop offset="0.870294" stop-color="#B80027"/>
</radialGradient>
</defs>
</svg>
