<svg xmlns="http://www.w3.org/2000/svg" viewBox="0 0 658 658"><defs><radialGradient id="a" cx="145.01" cy="1212.47" r="1" gradientTransform="matrix(0 329 277.6 0 -336249.14 -47378)" gradientUnits="userSpaceOnUse"><stop offset=".09" stop-color="#003d85"/><stop offset=".87" stop-color="#b80027"/></radialGradient></defs><g data-name="Слой 2"><g data-name="Слой 1"><path d="M0 0h658v658H0Z" style="fill:url(#a)"/><path d="M316.2 605.3q-44.1 0-76.5-13.5t-49.5-47.7Q174 509.9 174 447.8v-30.6h88.2V455q0 37.8 7.2 58.5t19.8 28.8q12.6 7.2 28.8 7.2 26.1 0 41.4-17.1 16.2-18 16.2-66.6 0-36-10.8-54T330.6 383q-22.5-11.7-58.5-26.1-29.7-13.5-51.3-31.5t-32.4-45.9q-10.8-27.9-10.8-69.3 0-50.4 12.6-81.9 13.5-32.4 45-46.8 31.5-15.3 84.6-15.3 68.4 0 104.4 31.5 36 30.6 36 90v62.1h-84.6v-36.9q0-41.4-13.5-59.4-12.6-18.9-41.4-18.9-29.7 0-43.2 18-12.6 17.1-12.6 54.9 0 32.4 12.6 50.4a89 89 0 0 0 32.4 27q20.7 9.9 42.3 18 40.5 15.3 65.7 31.5a95.56 95.56 0 0 1 36.9 43.2q11.7 27 11.7 76.5 0 56.7-18.9 90a104.51 104.51 0 0 1-52.2 46.8q-33.3 14.4-79.2 14.4Z" style="fill:#fff"/></g></g></svg>